<?xml version="1.0" standalone="no"?>
<!DOCTYPE svg PUBLIC "-//W3C//DTD SVG 20010904//EN"
 "http://www.w3.org/TR/2001/REC-SVG-20010904/DTD/svg10.dtd">
<svg version="1.0" xmlns="http://www.w3.org/2000/svg"
 width="512.000000pt" height="512.000000pt" viewBox="0 0 512.000000 512.000000"
 preserveAspectRatio="xMidYMid meet">

<g transform="translate(0.000000,512.000000) scale(0.100000,-0.100000)"
fill="#000000" stroke="none">
<path d="M1705 5104 c-59 -21 -110 -67 -139 -126 -24 -49 -26 -61 -26 -197 0
-125 3 -152 21 -191 25 -55 62 -96 112 -121 l38 -20 -3 -392 c-3 -342 -6 -398
-21 -436 -9 -24 -370 -595 -801 -1270 -431 -674 -795 -1248 -809 -1276 -89
-178 -100 -395 -28 -586 93 -246 332 -437 601 -478 56 -9 564 -11 1965 -9
l1890 3 73 23 c209 64 369 199 461 386 59 121 75 191 75 331 1 131 -20 229
-70 327 -14 28 -377 600 -806 1272 -430 671 -790 1244 -802 1271 -20 47 -21
70 -24 442 l-3 392 38 20 c50 25 87 66 112 121 18 39 21 66 21 191 0 136 -2
148 -26 197 -30 61 -80 105 -143 127 -65 22 -1644 21 -1706 -1z m1664 -169
c16 -8 31 -22 35 -30 3 -9 6 -68 6 -131 0 -109 -1 -116 -25 -139 l-24 -25
-456 0 -457 0 -29 -29 c-37 -38 -39 -82 -4 -116 l24 -25 401 0 400 0 0 -362
c0 -384 5 -442 42 -535 13 -32 227 -375 474 -763 248 -388 454 -711 458 -717
6 -10 -54 -13 -287 -13 l-295 0 35 79 c43 101 83 258 83 328 0 44 -5 58 -25
78 -29 30 -49 31 -178 4 -219 -44 -439 -156 -594 -303 -42 -38 -53 -45 -53
-30 -3 231 -44 500 -101 660 -58 164 -158 341 -205 363 -66 30 -102 4 -177
-127 -120 -209 -187 -463 -203 -777 l-7 -136 -41 39 c-178 169 -448 297 -688
327 -52 7 -59 5 -82 -18 -21 -21 -26 -36 -26 -76 0 -91 48 -268 101 -374 l19
-37 -296 0 -296 0 19 33 c11 17 217 340 458 717 242 377 450 711 463 743 37
93 42 151 42 535 l0 362 100 0 c94 0 103 2 125 25 27 27 33 79 12 106 -26 33
-55 39 -207 39 -147 0 -152 1 -175 25 -24 23 -25 30 -25 143 0 122 5 138 45
160 14 8 256 11 803 12 668 0 787 -2 811 -15z m-764 -2032 c78 -188 114 -355
122 -570 7 -180 -8 -333 -47 -488 -27 -110 -106 -315 -120 -315 -14 0 -93 205
-120 315 -73 287 -65 632 20 909 28 88 90 236 100 236 4 0 25 -39 45 -87z
m-899 -579 c150 -60 265 -136 387 -253 139 -134 155 -157 182 -268 25 -102 61
-207 95 -274 11 -21 16 -39 10 -39 -27 0 -198 83 -272 132 -272 182 -454 418
-543 706 l-14 44 34 -6 c19 -4 73 -22 121 -42z m1849 14 c-11 -51 -70 -192
-110 -264 -87 -155 -244 -326 -398 -432 -76 -53 -237 -134 -289 -147 l-27 -7
34 79 c30 69 61 166 95 302 10 38 31 64 133 166 125 125 206 185 337 251 65
32 198 82 223 84 5 0 5 -15 2 -32z m-1926 -503 c18 -25 68 -83 113 -130 l80
-85 -43 0 c-74 0 -239 -28 -334 -55 -127 -36 -308 -126 -323 -160 -30 -66 -8
-97 112 -155 198 -96 335 -129 569 -137 92 -3 167 -7 167 -8 0 -1 -13 -28 -30
-61 -36 -74 -60 -170 -60 -251 0 -57 2 -63 32 -88 31 -26 35 -27 107 -20 155
14 302 80 406 182 l55 54 0 -263 c1 -276 2 -282 47 -306 35 -19 63 -14 94 17
l29 29 0 258 0 257 43 -40 c121 -111 255 -172 417 -189 62 -6 68 -5 98 21 30
25 32 31 32 88 0 81 -24 177 -60 251 -17 33 -30 60 -30 61 0 1 75 5 168 8 227
8 360 39 558 132 122 57 151 96 122 160 -15 34 -196 124 -320 159 -94 27 -269
56 -338 56 l-42 0 78 83 c42 45 93 103 113 130 l35 47 405 -2 405 -3 263 -410
c145 -225 276 -437 292 -470 83 -173 73 -377 -26 -544 -78 -131 -238 -243
-387 -270 -42 -8 -623 -11 -1910 -11 -2042 0 -1921 -3 -2061 64 -237 113 -373
373 -321 615 8 41 29 102 44 135 24 50 520 841 554 884 8 9 103 12 413 12
l402 0 32 -45z m546 -446 l110 -53 -75 -18 c-237 -56 -529 -45 -770 28 l-55
17 30 13 c39 17 193 53 270 64 33 5 132 7 220 6 l160 -3 110 -54z m1385 28
c58 -14 121 -31 140 -40 l35 -14 -58 -18 c-249 -73 -546 -84 -773 -26 l-69 17
100 49 c55 26 118 51 140 56 22 4 117 6 210 4 135 -3 192 -9 275 -28z m-1110
-213 c0 -3 -15 -34 -32 -68 -61 -114 -204 -233 -322 -265 l-38 -10 6 32 c17
88 135 257 179 257 12 1 60 14 107 29 95 32 100 34 100 25z m339 -30 c46 -13
89 -24 96 -24 39 0 175 -208 175 -268 0 -19 -3 -20 -37 -10 -135 36 -283 170
-340 306 -13 33 -13 34 4 28 10 -4 56 -18 102 -32z"/>
<path d="M431 1001 c-31 -31 -72 -126 -84 -195 -36 -211 123 -421 346 -458
104 -17 157 9 157 76 0 55 -27 78 -103 87 -80 10 -133 35 -177 85 -70 80 -80
173 -30 267 36 69 38 100 5 132 -30 31 -86 34 -114 6z"/>
</g>
</svg>
