<?xml version="1.0" standalone="no"?>
<!DOCTYPE svg PUBLIC "-//W3C//DTD SVG 20010904//EN"
 "http://www.w3.org/TR/2001/REC-SVG-20010904/DTD/svg10.dtd">
<svg version="1.0" xmlns="http://www.w3.org/2000/svg"
 width="512.000000pt" height="512.000000pt" viewBox="0 0 512.000000 512.000000"
 preserveAspectRatio="xMidYMid meet">

<g transform="translate(0.000000,512.000000) scale(0.100000,-0.100000)"
fill="#000000" stroke="none">
<path d="M3375 5026 c-37 -17 -70 -52 -84 -89 -17 -43 -14 -379 4 -480 20
-117 66 -238 127 -338 60 -97 206 -248 286 -294 l52 -30 0 -897 0 -897 -269
-3 c-254 -3 -271 -4 -297 -24 -15 -11 -37 -33 -48 -48 -20 -27 -21 -40 -24
-537 l-3 -509 -103 0 c-134 0 -181 -16 -290 -96 -75 -56 -92 -64 -130 -64 -25
0 -57 5 -73 11 -15 5 -116 97 -223 203 -107 106 -211 202 -230 213 -49 29
-135 53 -191 53 -70 0 -167 -34 -227 -80 -29 -22 -55 -40 -58 -40 -3 0 -21 12
-40 28 l-34 27 0 271 0 272 223 5 c255 5 309 16 457 93 196 102 348 288 410
504 25 86 42 370 22 370 -6 0 -149 -20 -319 -45 -306 -44 -371 -58 -459 -96
l-46 -19 6 24 c50 201 21 471 -74 673 -36 77 -287 473 -300 473 -13 0 -264
-396 -300 -473 -57 -121 -90 -256 -97 -399 -3 -65 -8 -118 -9 -118 -2 0 -37
11 -79 25 -49 17 -182 41 -387 70 -171 25 -316 45 -321 45 -19 0 -1 -287 23
-370 62 -216 214 -402 410 -504 148 -77 202 -88 457 -93 l223 -5 0 -322 0
-321 -93 -1 c-76 0 -103 -5 -156 -27 l-65 -26 -117 29 c-132 34 -183 37 -255
15 -86 -25 -137 -66 -240 -195 -53 -66 -109 -127 -124 -135 -54 -28 -94 -81
-159 -214 -66 -134 -66 -135 -66 -220 0 -72 4 -95 26 -141 33 -70 99 -136 169
-169 l55 -26 2388 -3 2387 -2 0 80 0 80 -145 0 c-80 0 -145 2 -145 5 0 2 16
30 37 62 53 83 108 206 136 303 43 149 48 237 45 782 -3 494 -4 507 -24 534
-11 15 -33 37 -48 48 -26 20 -43 21 -297 24 l-269 3 0 897 0 897 52 30 c80 46
226 197 286 294 110 181 145 334 140 626 -3 212 -5 220 -72 269 -27 21 -38 21
-714 23 -557 2 -693 0 -717 -11z m1345 -226 l0 -80 -640 0 -640 0 0 80 0 80
640 0 640 0 0 -80z m-12 -301 c-21 -160 -99 -311 -221 -434 l-80 -80 -8 40
c-12 64 -26 92 -69 139 -57 61 -105 76 -248 76 -137 0 -179 -11 -236 -61 -48
-42 -73 -87 -85 -152 l-8 -42 -80 80 c-122 123 -200 274 -221 434 l-9 61 637
0 637 0 -9 -61z m-493 -444 l25 -24 0 -936 0 -935 -160 0 -160 0 0 935 0 936
25 24 c23 24 31 25 135 25 104 0 112 -1 135 -25z m-2713 -773 c137 -210 189
-389 174 -596 -10 -145 -72 -338 -131 -411 l-25 -30 0 318 0 317 -80 0 -80 0
0 -322 0 -323 -35 55 c-71 114 -124 302 -125 446 0 133 45 320 102 422 34 61
133 212 138 212 3 0 31 -40 62 -88z m-846 -691 c207 -31 280 -50 367 -99 48
-27 52 -33 88 -121 20 -50 34 -90 30 -89 -123 65 -224 109 -230 102 -10 -9
-63 -137 -58 -138 110 -45 301 -158 372 -221 l30 -26 -160 4 c-143 3 -169 7
-240 31 -246 84 -416 289 -450 543 l-7 53 29 -5 c15 -3 118 -18 229 -34z
m1819 -173 c-18 -141 -89 -284 -190 -384 -76 -75 -156 -124 -260 -160 -71 -24
-97 -28 -240 -31 l-160 -4 30 26 c71 63 262 176 372 221 5 1 -48 129 -57 138
-12 13 -182 -71 -289 -142 -47 -31 -92 -61 -100 -66 -23 -15 47 108 97 167 75
91 180 162 297 202 37 12 369 68 498 84 5 1 6 -23 2 -51z m1762 -560 c-6 -153
-31 -274 -81 -397 -59 -146 -103 -136 -166 36 -46 127 -61 211 -67 366 l-6
137 163 0 163 0 -6 -142z m-472 -75 c23 -219 98 -448 169 -519 84 -85 208 -85
292 0 71 71 146 300 169 519 l6 57 240 0 240 0 -4 -532 c-3 -505 -4 -537 -24
-613 -38 -143 -109 -283 -199 -398 l-46 -57 -119 0 -119 0 -54 108 c-80 160
-146 212 -269 212 -47 0 -53 3 -101 53 -78 81 -126 99 -276 106 -134 7 -130 5
-246 81 -41 27 -90 54 -109 60 l-35 12 0 484 0 484 239 0 240 0 6 -57z m-2927
-754 c26 -7 49 -14 51 -16 3 -2 -10 -19 -29 -38 -37 -38 -38 -33 29 -107 19
-21 39 -38 44 -38 6 0 48 36 93 80 102 100 151 123 254 123 113 0 151 -21 295
-163 66 -66 125 -120 129 -120 12 0 106 92 106 104 0 6 -21 32 -47 58 l-47 48
23 24 c26 27 99 56 142 56 73 0 109 -26 314 -229 236 -233 248 -241 405 -251
58 -3 114 -11 125 -17 37 -21 63 -58 124 -180 l61 -123 -1262 0 c-1204 0
-1265 1 -1303 19 -22 10 -48 27 -57 37 -25 29 -48 89 -48 127 0 43 111 271
139 286 11 6 74 11 140 11 l121 0 0 79 0 80 -45 3 -44 3 51 59 c78 88 136 109
236 85z m2433 -324 c16 -9 64 -38 106 -65 96 -63 152 -80 270 -80 61 0 106 -5
130 -15 l37 -16 -38 -36 c-22 -22 -61 -82 -92 -145 l-54 -108 -270 0 -270 0
-85 169 c-54 109 -99 185 -125 212 -44 47 -43 53 15 83 43 23 333 23 376 1z
m830 -315 c10 -6 35 -42 54 -80 l35 -70 -190 0 -190 0 35 69 c19 39 43 74 52
80 23 14 179 14 204 1z"/>
<path d="M1040 641 l0 -81 141 0 141 0 69 -67 70 -67 57 57 57 57 -60 61 c-33
33 -80 73 -105 87 -43 26 -52 27 -207 30 l-163 4 0 -81z"/>
<path d="M1942 617 c-39 -40 -72 -77 -72 -83 0 -13 92 -104 106 -104 5 0 43
34 84 75 l74 75 -54 55 c-30 30 -57 55 -60 55 -3 0 -38 -33 -78 -73z"/>
<path d="M742 537 c-39 -40 -72 -77 -72 -83 0 -13 92 -104 106 -104 5 0 43 34
84 75 l74 75 -54 55 c-30 30 -57 55 -60 55 -3 0 -38 -33 -78 -73z"/>
</g>
</svg>
